<svg xmlns="http://www.w3.org/2000/svg" viewBox="0 0 32 40" enable-background="new 0 0 32 32" x="0px" y="0px"><g><path d="M29.5 30h-27c-1.378 0-2.5-1.121-2.5-2.5v-23c0-1.378 1.122-2.5 2.5-2.5h27c1.379 0 2.5 1.122 2.5 2.5v23c0 1.379-1.121 2.5-2.5 2.5zm-27-26c-.276 0-.5.224-.5.5v23c0 .275.224.5.5.5h27c.275 0 .5-.225.5-.5v-23c0-.276-.225-.5-.5-.5h-27zM31 10h-30c-.552 0-1-.448-1-1s.448-1 1-1h30c.553 0 1 .448 1 1s-.447 1-1 1zM4 7c-.26 0-.52-.11-.71-.29-.18-.19-.29-.45-.29-.71 0-.26.11-.52.29-.71.38-.37 1.05-.37 1.42 0 .18.19.29.45.29.71 0 .26-.11.52-.29.71-.19.18-.45.29-.71.29zM7 7c-.26 0-.52-.11-.71-.29-.18-.19-.29-.45-.29-.71 0-.26.11-.52.29-.71.38-.37 1.04-.37 1.42 0 .18.19.29.45.29.71 0 .26-.11.52-.29.71-.19.18-.45.29-.71.29zM22 24c-.256 0-.512-.098-.707-.293-.391-.391-.391-1.023 0-1.414l2.939-2.939c.194-.195.194-.512 0-.707l-2.939-2.939c-.391-.391-.391-1.023 0-1.414s1.023-.391 1.414 0l2.939 2.939c.975.975.975 2.561 0 3.535l-2.939 2.939c-.195.195-.451.293-.707.293zM10 24c-.256 0-.512-.098-.707-.293l-2.939-2.939c-.974-.975-.974-2.561 0-3.535l2.94-2.939c.391-.391 1.023-.391 1.414 0s.391 1.023 0 1.414l-2.939 2.939c-.194.195-.194.512 0 .707l2.939 2.939c.391.391.391 1.023 0 1.414-.196.195-.452.293-.708.293zM14 25c-.124 0-.249-.022-.371-.071-.513-.205-.762-.787-.557-1.3l4-10c.205-.513.791-.76 1.3-.557.513.206.763.787.558 1.3l-4 10c-.158.391-.534.628-.93.628z"/></g></svg>